<svg xmlns="http://www.w3.org/2000/svg" width="1200" height="760" viewBox="0 0 1200 760" role="img" aria-labelledby="title desc">
  <title id="title">OpenODC data workflow</title>
  <desc id="desc">A four-step English workflow from public sources to an exportable review package.</desc>
  <defs>
    <linearGradient id="bg" x1="0" y1="0" x2="1" y2="1">
      <stop offset="0" stop-color="#ffffff"/>
      <stop offset="1" stop-color="#f3f5f8"/>
    </linearGradient>
    <filter id="shadow" x="-20%" y="-20%" width="140%" height="140%">
      <feDropShadow dx="0" dy="18" stdDeviation="18" flood-color="#1b174a" flood-opacity=".13"/>
    </filter>
  </defs>
  <rect width="1200" height="760" fill="url(#bg)"/>
  <g fill="none" stroke="#d9dde6" stroke-width="1">
    <path d="M100 128H1100"/>
    <path d="M100 246H1100"/>
    <path d="M100 364H1100"/>
    <path d="M100 482H1100"/>
    <path d="M100 600H1100"/>
  </g>
  <text x="92" y="92" fill="#1b174a" font-family="Source Han Sans SC, Noto Sans SC, Arial, sans-serif" font-size="42" font-weight="800">OpenODC Data Workflow</text>
  <text x="94" y="132" fill="#525a66" font-family="Source Han Sans SC, Noto Sans SC, Arial, sans-serif" font-size="20">From public evidence to a structured, reviewable ODC package</text>
  <g transform="translate(92 206)" filter="url(#shadow)">
    <rect width="210" height="180" rx="18" fill="#ffffff" stroke="#d8dce6"/>
    <circle cx="42" cy="42" r="22" fill="#1b174a"/>
    <text x="42" y="50" text-anchor="middle" fill="#ffffff" font-family="Arial, sans-serif" font-size="24" font-weight="800">1</text>
    <text x="30" y="92" fill="#1f2430" font-family="Source Han Sans SC, Noto Sans SC, Arial, sans-serif" font-size="25" font-weight="800">Source Intake</text>
    <text x="30" y="126" fill="#525a66" font-family="Source Han Sans SC, Noto Sans SC, Arial, sans-serif" font-size="17">Manuals, official pages,</text>
    <text x="30" y="151" fill="#525a66" font-family="Source Han Sans SC, Noto Sans SC, Arial, sans-serif" font-size="17">operating rules, tests</text>
  </g>
  <path d="M332 296H410" stroke="#1b174a" stroke-width="5" stroke-linecap="round"/>
  <path d="M410 296l-18-12v24z" fill="#1b174a"/>
  <g transform="translate(432 206)" filter="url(#shadow)">
    <rect width="210" height="180" rx="18" fill="#ffffff" stroke="#d8dce6"/>
    <circle cx="42" cy="42" r="22" fill="#1b174a"/>
    <text x="42" y="50" text-anchor="middle" fill="#ffffff" font-family="Arial, sans-serif" font-size="24" font-weight="800">2</text>
    <text x="30" y="92" fill="#1f2430" font-family="Source Han Sans SC, Noto Sans SC, Arial, sans-serif" font-size="25" font-weight="800">GB/T Mapping</text>
    <text x="30" y="126" fill="#525a66" font-family="Source Han Sans SC, Noto Sans SC, Arial, sans-serif" font-size="17">144 ODC elements,</text>
    <text x="30" y="151" fill="#525a66" font-family="Source Han Sans SC, Noto Sans SC, Arial, sans-serif" font-size="17">parameters, associations</text>
  </g>
  <path d="M672 296H750" stroke="#1b174a" stroke-width="5" stroke-linecap="round"/>
  <path d="M750 296l-18-12v24z" fill="#1b174a"/>
  <g transform="translate(772 206)" filter="url(#shadow)">
    <rect width="210" height="180" rx="18" fill="#ffffff" stroke="#d8dce6"/>
    <circle cx="42" cy="42" r="22" fill="#1b174a"/>
    <text x="42" y="50" text-anchor="middle" fill="#ffffff" font-family="Arial, sans-serif" font-size="24" font-weight="800">3</text>
    <text x="30" y="92" fill="#1f2430" font-family="Source Han Sans SC, Noto Sans SC, Arial, sans-serif" font-size="25" font-weight="800">Evidence Review</text>
    <text x="30" y="126" fill="#525a66" font-family="Source Han Sans SC, Noto Sans SC, Arial, sans-serif" font-size="17">Provenance, gaps,</text>
    <text x="30" y="151" fill="#525a66" font-family="Source Han Sans SC, Noto Sans SC, Arial, sans-serif" font-size="17">confidence, status</text>
  </g>
  <path d="M982 296H1062" stroke="#1b174a" stroke-width="5" stroke-linecap="round"/>
  <path d="M1062 296l-18-12v24z" fill="#1b174a"/>
  <g transform="translate(878 456)" filter="url(#shadow)">
    <rect width="230" height="150" rx="18" fill="#ffffff" stroke="#d8dce6"/>
    <text x="28" y="48" fill="#1b174a" font-family="Source Han Sans SC, Noto Sans SC, Arial, sans-serif" font-size="24" font-weight="800">Review Package</text>
    <text x="28" y="88" fill="#525a66" font-family="Source Han Sans SC, Noto Sans SC, Arial, sans-serif" font-size="17">CSV / Markdown export</text>
    <text x="28" y="116" fill="#525a66" font-family="Source Han Sans SC, Noto Sans SC, Arial, sans-serif" font-size="17">for expert review</text>
  </g>
  <g transform="translate(120 472)">
    <rect width="612" height="122" rx="18" fill="#f4f3ff" stroke="#c7c4ed"/>
    <text x="30" y="46" fill="#1b174a" font-family="Source Han Sans SC, Noto Sans SC, Arial, sans-serif" font-size="24" font-weight="800">ODCDocument</text>
    <text x="30" y="84" fill="#343a46" font-family="Source Han Sans SC, Noto Sans SC, Arial, sans-serif" font-size="18">identity | elements[] | associations[] | boundary_combinations[] | metadata</text>
  </g>
  <path d="M772 386C772 444 760 515 732 533" stroke="#1b174a" stroke-width="4" stroke-linecap="round" fill="none" stroke-dasharray="10 10"/>
  <path d="M732 533l18-3-10 16z" fill="#1b174a"/>
</svg>
